<?xml version="1.0" encoding="utf-8"?>
<!-- Generator: Adobe Illustrator 22.1.0, SVG Export Plug-In . SVG Version: 6.00 Build 0)  -->
<svg version="1.1" id="Layer_1" xmlns="http://www.w3.org/2000/svg" xmlns:xlink="http://www.w3.org/1999/xlink" x="0px" y="0px"
	 viewBox="0 0 24 24" style="enable-background:new 0 0 24 24;" xml:space="preserve">
<g>
	<g>
		<path style="fill:#00B2EF;" d="M12.3,12.6l6.6,6.6c1.9-1.8,3.1-4.4,3.1-7.2c0-2.9-1.2-5.4-3.1-7.2l-6.6,6.6
			C11.9,11.7,11.9,12.3,12.3,12.6z"/>
	</g>
	<g>
		<path style="fill:#414141;" d="M13.4,18.5c-0.4,0.1-0.9,0.1-1.4,0.1c-3.7,0-6.7-3-6.7-6.6c0-3.7,3-6.6,6.7-6.6
			c0.5,0,0.9,0.1,1.4,0.1L16,2.9C14.8,2.3,13.4,2,12,2C6.5,2,2,6.5,2,12c0,5.5,4.5,10,10,10c1.4,0,2.8-0.3,4-0.9L13.4,18.5z"/>
	</g>
</g>
</svg>
