<svg xmlns="http://www.w3.org/2000/svg" xmlns:xlink="http://www.w3.org/1999/xlink" width="19px" height="19px" viewBox="0 0 20 20" version="1.1"><g id="surface1"><path style=" stroke:none;fill-rule:evenodd;fill:rgb(57.254902%,57.254902%,57.254902%);fill-opacity:1;" d="M 10 13.695312 L 10 15.316406 C 10 15.488281 10.144531 15.625 10.3125 15.625 C 10.484375 15.625 10.625 15.484375 10.625 15.316406 L 10.625 13.695312 C 10.988281 13.566406 11.25 13.21875 11.25 12.8125 C 11.25 12.292969 10.832031 11.875 10.3125 11.875 C 9.792969 11.875 9.375 12.292969 9.375 12.8125 C 9.375 13.21875 9.636719 13.566406 10 13.695312 Z M 5.625 8.75 L 5.625 6.5625 C 5.625 3.972656 7.722656 1.875 10.3125 1.875 C 12.894531 1.875 15 3.972656 15 6.5625 L 15 8.75 C 16.035156 8.753906 16.875 9.59375 16.875 10.632812 L 16.875 16.867188 C 16.875 17.914062 16.03125 18.75 14.996094 18.75 L 5.628906 18.75 C 4.589844 18.75 3.75 17.90625 3.75 16.867188 L 3.75 10.632812 C 3.75 9.585938 4.589844 8.753906 5.625 8.75 Z M 7.5 8.75 L 7.5 6.5625 C 7.5 5.003906 8.757812 3.75 10.3125 3.75 C 11.863281 3.75 13.125 5.007812 13.125 6.5625 L 13.125 8.75 Z M 7.5 8.75 "/></g></svg>